# xmcd
#
# Track frame offsets:
#	150
#	14036
#	32698
#	50194
#	69443
#	84748
#	100972
#	112853
#	135593
#	149248
#	162727
#	174718
#	187535
#
# Disc length: 2691 seconds
#
# Revision: 1
# Processed by: cddbd v1.5PL3 Copyright (c) Steve Scherf et al.
# Submitted via: audiograbber 1.81.02
#
DISCID=bc0a810d
DTITLE=The Webb Brothers - Mustering On
DYEAR=2001
DGENRE=Country
TTITLE0=We're Country Singers
TTITLE1=Swagman
TTITLE2=Mary Valley Dreams
TTITLE3=Mountains High
TTITLE4=Catfish John
TTITLE5=The Old Bush Hat
TTITLE6=The Honey, The Bee, You and Me
TTITLE7=Boy On Parole
TTITLE8=There's No More Blues for Me
TTITLE9=A Country Dance
TTITLE10=The Day I Jumped from Uncle Harvey's Plane
TTITLE11=Let's Hear It For The Workin' Man
TTITLE12=Call of The Bellbird
EXTD=
EXTT0=
EXTT1=
EXTT2=
EXTT3=
EXTT4=
EXTT5=
EXTT6=
EXTT7=
EXTT8=
EXTT9=
EXTT10=
EXTT11=
EXTT12=
PLAYORDER=
